<svg width="1440" height="1024" viewBox="0 0 1440 1024" fill="none" xmlns="http://www.w3.org/2000/svg">
<g clip-path="url(#clip0)">
<rect width="1440" height="1024" fill="white"/>
<rect x="1270.83" y="1071.44" width="373.523" height="68.072" transform="rotate(-50.4013 1270.83 1071.44)" fill="#FC7A03"/>
<rect x="643.058" y="1141.7" width="1074.72" height="144.362" transform="rotate(-43.9688 643.058 1141.7)" fill="#FC7A03"/>
<rect x="1480.93" y="820.862" width="118.108" height="293.233" transform="rotate(25.3912 1480.93 820.862)" fill="#FAA004"/>
<path d="M1400.09 407.993L753.757 1130.12L695.628 1073.54L1400.09 407.993Z" fill="#FC9F02"/>
<rect x="119.569" y="-10.5845" width="303.058" height="55.2302" transform="rotate(125.95 119.569 -10.5845)" fill="#FC7A03"/>
<rect x="624.255" y="-99.8879" width="871.974" height="117.128" transform="rotate(132.383 624.255 -99.8879)" fill="#FC7A03"/>
<rect x="-37.6134" y="203.154" width="95.8268" height="237.915" transform="rotate(-158.257 -37.6134 203.154)" fill="#FAA004"/>
<path d="M49.1626 533.282L535.218 -84.7975L585.207 -41.982L49.1626 533.282Z" fill="#FC9F02"/>
<rect x="428.779" y="-12.7766" width="778.162" height="263.306" transform="rotate(124.62 428.779 -12.7766)" fill="#1A1A1A"/>
<rect x="877.661" y="1072.01" width="959.096" height="324.529" transform="rotate(-51.7321 877.661 1072.01)" fill="#1A1A1A"/>
</g>
<defs>
<clipPath id="clip0">
<rect width="1440" height="1024" fill="white"/>
</clipPath>
</defs>
</svg>
